# xmcd
#
# Track frame offsets:
#	150
#	13517
#	32660
#	45010
#	54090
#	64045
#	74202
#	87702
#	98207
#	108950
#	122102
#	133275
#
# Disc length: 1902 seconds
#
# Revision: 33106478
# Processed by: cddbd v1.5.2PL0 Copyright (c) Steve Scherf et al.
# Submitted via: EZCDAudioConverter 9.0.6.1
#
DISCID=a2076c0c
DTITLE=Alabama - Super Hits
DYEAR=1992
DGENRE=Country
TTITLE0=Patches
TTITLE1=I Want To Be With You
TTITLE2=Loving You Is Killing Me
TTITLE3=No Greater Love
TTITLE4=Running Out Of Reasons
TTITLE5=One More Mountain
TTITLE6=Her and Our Baby
TTITLE7=Wings Of A Dove
TTITLE8=Gone
TTITLE9=Fallen Star
TTITLE10=World Of Our Own
TTITLE11=Keeping On
EXTD=
EXTT0=
EXTT1=
EXTT2=
EXTT3=
EXTT4=
EXTT5=
EXTT6=
EXTT7=
EXTT8=
EXTT9=
EXTT10=
EXTT11=
PLAYORDER=
